# xmcd CD database file
#
# Track frame offsets:
#	151
#	15516
#	32507
#	43282
#	58169
#	72064
#	89282
#	101736
#	115621
#	135181
#	153663
#	171684
#
# Disc length: 2513 seconds
#
# Revision: 0
# Processed by: cddbd v1.5.2PL0 Copyright (c) Steve Scherf et al.
# Submitted via: CDex 1.51
#
DISCID=9c09cf0c
DTITLE=Mac Maton - The Essence of Mac
DYEAR=1900
DGENRE=Country
TTITLE0=Unchained Melody
TTITLE1=Look At Us
TTITLE2=Easy Lovin'
TTITLE3=Old Country
TTITLE4=Pocket Full of Gold
TTITLE5=Prisoners Song
TTITLE6=The Picture
TTITLE7=What Do Lonely People Do
TTITLE8=I Can't Stop Loving You
TTITLE9=Don't Let Me Cross over
TTITLE10=I Will Love You All My Life
TTITLE11=I'll Leave This World Loving You
EXTD=
EXTT0=
EXTT1=
EXTT2=
EXTT3=
EXTT4=
EXTT5=
EXTT6=
EXTT7=
EXTT8=
EXTT9=
EXTT10=
EXTT11=
PLAYORDER=
